<svg width="1440" height="57" viewBox="0 0 1440 57" fill="none" xmlns="http://www.w3.org/2000/svg">
<path d="M22.2052 40.3771H14.2758V48.3066H22.2052V40.3771Z" fill="#1A2851"/>
<path d="M30.1354 48.3068L22.2052 48.3066L22.2059 56.2363H30.1354V48.3068Z" fill="#1A2851"/>
<path d="M14.2758 48.3066L6.34636 48.3065V56.236H14.2758L14.2758 48.3066Z" fill="#1A2851"/>
<path d="M69.7828 40.3774H61.8533V48.3069H69.7828V40.3774Z" fill="#1A2851"/>
<path d="M77.7128 48.3079L69.7828 48.3069L69.7834 56.2374H77.7128V48.3079Z" fill="#1A2851"/>
<path d="M61.8533 48.3069L53.9245 48.3072V56.2367H61.854L61.8533 48.3069Z" fill="#1A2851"/>
<path d="M117.36 40.3771H109.43V48.3066H117.36V40.3771Z" fill="#1A2851"/>
<path d="M125.29 48.306L117.36 48.3066L117.36 56.2355H125.29V48.306Z" fill="#1A2851"/>
<path d="M109.43 48.3066L101.501 48.3065V56.236H109.43L109.43 48.3066Z" fill="#1A2851"/>
<path d="M164.937 40.3771H157.007V48.3066H164.937V40.3771Z" fill="#1A2851"/>
<path d="M172.866 48.3074L164.937 48.3066L164.937 56.2368H172.866V48.3074Z" fill="#1A2851"/>
<path d="M157.007 48.3066L149.079 48.3067V56.2362H157.008L157.007 48.3066Z" fill="#1A2851"/>
<path d="M212.514 40.3774H204.585V48.3069H212.514V40.3774Z" fill="#1A2851"/>
<path d="M220.445 48.3063L212.514 48.3069L212.515 56.2358H220.445V48.3063Z" fill="#1A2851"/>
<path d="M204.585 48.3069L196.656 48.3068V56.2363H204.585L204.585 48.3069Z" fill="#1A2851"/>
<path d="M260.091 40.3773H252.162V48.3067H260.091V40.3773Z" fill="#1A2851"/>
<path d="M268.022 48.3074L260.091 48.3067L260.092 56.2369H268.022V48.3074Z" fill="#1A2851"/>
<path d="M252.162 48.3067L244.233 48.307V56.2365H252.163L252.162 48.3067Z" fill="#1A2851"/>
<path d="M307.669 40.3772H299.74V48.3067H307.669V40.3772Z" fill="#1A2851"/>
<path d="M315.599 48.3071L307.669 48.3067L307.67 56.2366H315.599V48.3071Z" fill="#1A2851"/>
<path d="M299.74 48.3067L291.81 48.3068V56.2362H299.74L299.74 48.3067Z" fill="#1A2851"/>
<path d="M355.245 40.3772H347.316V48.3067H355.245V40.3772Z" fill="#1A2851"/>
<path d="M363.175 48.3068L355.245 48.3067L355.245 56.2362H363.175V48.3068Z" fill="#1A2851"/>
<path d="M347.316 48.3067L339.386 48.3068V56.2362H347.316L347.316 48.3067Z" fill="#1A2851"/>
<path d="M402.823 40.3771H394.894V48.3066H402.823V40.3771Z" fill="#1A2851"/>
<path d="M410.753 48.3068L402.823 48.3066L402.823 56.2363H410.753V48.3068Z" fill="#1A2851"/>
<path d="M394.894 48.3066L386.964 48.3065V56.236H394.893L394.894 48.3066Z" fill="#1A2851"/>
<path d="M450.4 40.3773H442.47V48.3067H450.4V40.3773Z" fill="#1A2851"/>
<path d="M458.329 48.3068L450.4 48.3067L450.4 56.2363H458.329V48.3068Z" fill="#1A2851"/>
<path d="M442.47 48.3067L434.541 48.3068V56.2363H442.471L442.47 48.3067Z" fill="#1A2851"/>
<path d="M497.977 40.3771H490.048V48.3066H497.977V40.3771Z" fill="#1A2851"/>
<path d="M505.907 48.3068L497.977 48.3066L497.977 56.2363H505.907V48.3068Z" fill="#1A2851"/>
<path d="M490.048 48.3066L482.119 48.306V56.2355H490.049L490.048 48.3066Z" fill="#1A2851"/>
<path d="M545.555 40.3773H537.625V48.3067H545.555V40.3773Z" fill="#1A2851"/>
<path d="M553.484 48.3068L545.555 48.3067L545.555 56.2363H553.484V48.3068Z" fill="#1A2851"/>
<path d="M537.625 48.3067L529.696 48.3068V56.2363H537.626L537.625 48.3067Z" fill="#1A2851"/>
<path d="M593.132 40.3772H585.203V48.3067H593.132V40.3772Z" fill="#1A2851"/>
<path d="M601.062 48.3069L593.132 48.3067L593.132 56.2364H601.062V48.3069Z" fill="#1A2851"/>
<path d="M585.203 48.3067L577.274 48.3061V56.2355H585.204L585.203 48.3067Z" fill="#1A2851"/>
<path d="M640.71 40.3771H632.78V48.3066H640.71V40.3771Z" fill="#1A2851"/>
<path d="M648.64 48.3072L640.71 48.3066L640.71 56.2367H648.64V48.3072Z" fill="#1A2851"/>
<path d="M632.78 48.3066L624.851 48.3067V56.2362H632.78L632.78 48.3066Z" fill="#1A2851"/>
<path d="M688.287 40.3771H680.357V48.3066H688.287V40.3771Z" fill="#1A2851"/>
<path d="M696.216 48.3067L688.287 48.3066L688.287 56.2362H696.216V48.3067Z" fill="#1A2851"/>
<path d="M680.357 48.3066L672.429 48.306V56.2355H680.358L680.357 48.3066Z" fill="#1A2851"/>
<path d="M735.865 40.3771H727.935V48.3066H735.865V40.3771Z" fill="#1A2851"/>
<path d="M743.795 48.307L735.865 48.3066L735.865 56.2365H743.795V48.307Z" fill="#1A2851"/>
<path d="M727.935 48.3066L720.006 48.3063V56.2358H727.935L727.935 48.3066Z" fill="#1A2851"/>
<path d="M783.442 40.3771H775.512V48.3066H783.442V40.3771Z" fill="#1A2851"/>
<path d="M791.371 48.3065L783.442 48.3066L783.442 56.236H791.371V48.3065Z" fill="#1A2851"/>
<path d="M775.512 48.3066L767.583 48.3067V56.2362H775.512L775.512 48.3066Z" fill="#1A2851"/>
<path d="M831.019 40.3772H823.089V48.3067H831.019V40.3772Z" fill="#1A2851"/>
<path d="M838.949 48.3071L831.019 48.3067L831.02 56.2366H838.949V48.3071Z" fill="#1A2851"/>
<path d="M823.089 48.3067L815.16 48.3062V56.2357H823.09L823.089 48.3067Z" fill="#1A2851"/>
<path d="M878.596 40.3772H870.666V48.3067H878.596V40.3772Z" fill="#1A2851"/>
<path d="M886.525 48.3071L878.596 48.3067L878.596 56.2366H886.525V48.3071Z" fill="#1A2851"/>
<path d="M870.666 48.3067L862.737 48.3069V56.2364H870.667L870.666 48.3067Z" fill="#1A2851"/>
<path d="M926.174 40.3772H918.245V48.3067H926.174V40.3772Z" fill="#1A2851"/>
<path d="M934.104 48.3068L926.174 48.3067L926.174 56.2362H934.104V48.3068Z" fill="#1A2851"/>
<path d="M918.245 48.3067L910.315 48.3068V56.2362H918.245L918.245 48.3067Z" fill="#1A2851"/>
<path d="M973.752 40.3771H965.823V48.3066H973.752V40.3771Z" fill="#1A2851"/>
<path d="M981.682 48.3068L973.752 48.3066L973.752 56.2363H981.682V48.3068Z" fill="#1A2851"/>
<path d="M965.821 48.3065H957.892V56.236H965.821V48.3065Z" fill="#1A2851"/>
<path d="M1021.33 40.3771H1013.4V48.3066H1021.33V40.3771Z" fill="#1A2851"/>
<path d="M1029.26 48.3065L1021.33 48.3066V56.236H1029.26V48.3065Z" fill="#1A2851"/>
<path d="M1013.4 48.3066L1005.47 48.3065V56.236H1013.4V48.3066Z" fill="#1A2851"/>
<path d="M1068.91 40.3772H1060.98V48.3067H1068.91V40.3772Z" fill="#1A2851"/>
<path d="M1076.83 48.3069L1068.91 48.3067V56.2364H1076.83V48.3069Z" fill="#1A2851"/>
<path d="M1060.98 48.3067L1053.05 48.3061V56.2355H1060.98L1060.98 48.3067Z" fill="#1A2851"/>
<path d="M1116.48 40.3772H1108.55V48.3067H1116.48V40.3772Z" fill="#1A2851"/>
<path d="M1124.41 48.3071L1116.48 48.3067L1116.48 56.2366H1124.41V48.3071Z" fill="#1A2851"/>
<path d="M1108.55 48.3067L1100.62 48.3066V56.2361H1108.55V48.3067Z" fill="#1A2851"/>
<path d="M1164.06 40.3771H1156.13V48.3066H1164.06V40.3771Z" fill="#1A2851"/>
<path d="M1171.99 48.3067L1164.06 48.3066L1164.06 56.2362H1171.99V48.3067Z" fill="#1A2851"/>
<path d="M1156.13 48.3066L1148.2 48.3067V56.2362H1156.13L1156.13 48.3066Z" fill="#1A2851"/>
<path d="M1211.64 40.3771H1203.71V48.3066H1211.64V40.3771Z" fill="#1A2851"/>
<path d="M1219.57 48.3072H1211.64V56.2367H1219.57V48.3072Z" fill="#1A2851"/>
<path d="M1203.71 48.3066L1195.78 48.3067V56.2362H1203.71L1203.71 48.3066Z" fill="#1A2851"/>
<path d="M1259.21 40.3772H1251.28V48.3067H1259.21V40.3772Z" fill="#1A2851"/>
<path d="M1267.14 48.3073L1259.21 48.3067L1259.21 56.2368H1267.14V48.3073Z" fill="#1A2851"/>
<path d="M1251.28 48.3067L1243.35 48.3068V56.2362H1251.28L1251.28 48.3067Z" fill="#1A2851"/>
<path d="M1306.79 40.3772H1298.86V48.3067H1306.79V40.3772Z" fill="#1A2851"/>
<path d="M1314.72 48.3069L1306.79 48.3067V56.2364H1314.72V48.3069Z" fill="#1A2851"/>
<path d="M1298.86 48.3067L1290.93 48.3061V56.2355H1298.86V48.3067Z" fill="#1A2851"/>
<path d="M1354.37 40.3771H1346.44V48.3066H1354.37V40.3771Z" fill="#1A2851"/>
<path d="M1362.3 48.3074L1354.37 48.3066L1354.37 56.2368H1362.3V48.3074Z" fill="#1A2851"/>
<path d="M1346.44 48.3066L1338.51 48.3065V56.236H1346.44L1346.44 48.3066Z" fill="#1A2851"/>
<path d="M1401.94 40.3772H1394.02V48.3067H1401.94V40.3772Z" fill="#1A2851"/>
<path d="M1409.87 48.3071L1401.94 48.3067V56.2366H1409.87V48.3071Z" fill="#1A2851"/>
<path d="M1394.02 48.3067L1386.09 48.3068V56.2362H1394.02V48.3067Z" fill="#1A2851"/>
<path d="M1441.59 48.3067L1433.66 48.3068V56.2362H1441.59V48.3067Z" fill="#1A2851"/>
<path d="M6.34424 32.4458H-1.58524V40.3753H6.34424V32.4458Z" fill="#FFAD39"/>
<path d="M6.34355 16.5875H-1.58594V24.517H6.34355V16.5875Z" fill="#FFAD39"/>
<path d="M14.2723 8.65755H6.34277L6.34355 16.5875L14.2723 16.587V8.65755Z" fill="#FFAD39"/>
<path d="M22.203 0.728667H14.2736V8.65815H22.203V0.728667Z" fill="#FFAD39"/>
<path d="M30.1325 8.65807L22.203 8.65815L22.203 16.5876H30.1325V8.65807Z" fill="#FFAD39"/>
<path d="M38.0619 16.5875L30.1325 16.5876L30.1324 24.517H38.0619V16.5875Z" fill="#FFAD39"/>
<path d="M14.273 24.516L6.34355 24.517L6.34424 32.4458L14.273 32.4455V24.516Z" fill="#FFAD39"/>
<path d="M22.203 16.5876L14.2736 16.5877V24.5171H22.203L22.203 16.5876Z" fill="#FFAD39"/>
<path d="M30.1324 24.517L22.203 24.5171L22.203 32.4467H30.1325L30.1324 24.517Z" fill="#FFAD39"/>
<path d="M38.0626 32.4456H30.1331V40.3751H38.0626V32.4456Z" fill="#FFAD39"/>
<path d="M53.9214 32.4463H45.9919V40.3758H53.9214V32.4463Z" fill="#FFAD39"/>
<path d="M53.9214 16.5873H45.9919V24.5168H53.9214V16.5873Z" fill="#FFAD39"/>
<path d="M61.8501 8.65845H53.9206L53.9214 16.5873L61.8501 16.5879V8.65845Z" fill="#FFAD39"/>
<path d="M69.7809 0.728689H61.8514V8.65817H69.7809V0.728689Z" fill="#FFAD39"/>
<path d="M77.7096 8.65862L69.7809 8.65817L69.7801 16.5881H77.7096V8.65862Z" fill="#FFAD39"/>
<path d="M85.6397 16.5884L77.7096 16.5881L77.7103 24.5179H85.6397V16.5884Z" fill="#FFAD39"/>
<path d="M45.9919 24.5168L38.0619 24.517L38.0626 32.4456L45.9919 32.4463V24.5168Z" fill="#FFAD39"/>
<path d="M61.8501 24.5174L53.9214 24.5168V32.4463L61.8501 32.4469V24.5174Z" fill="#FFAD39"/>
<path d="M69.7801 16.5881L61.8501 16.5879V24.5174L69.7802 24.5179L69.7801 16.5881Z" fill="#FFAD39"/>
<path d="M77.7103 24.5179H69.7802L69.7801 32.4466H77.7096L77.7103 24.5179Z" fill="#FFAD39"/>
<path d="M85.639 32.4467L77.7096 32.4466L77.7095 40.3761H85.639V32.4467Z" fill="#FFAD39"/>
<path d="M45.9919 40.3758L38.0626 40.3751L38.0625 48.3056H45.992L45.9919 40.3758Z" fill="#FFAD39"/>
<path d="M101.499 32.4465H93.569V40.376H101.499V32.4465Z" fill="#FFAD39"/>
<path d="M101.499 16.5877H93.569V24.5172H101.499V16.5877Z" fill="#FFAD39"/>
<path d="M109.428 8.65879H101.498L101.499 16.5877L109.428 16.5883V8.65879Z" fill="#FFAD39"/>
<path d="M117.358 0.729041H109.429L109.428 8.65879L117.358 8.65853V0.729041Z" fill="#FFAD39"/>
<path d="M125.287 8.65879L117.358 8.65853L117.357 16.5883H125.287V8.65879Z" fill="#FFAD39"/>
<path d="M133.216 16.5875L125.287 16.5883L125.287 24.517H133.216V16.5875Z" fill="#FFAD39"/>
<path d="M93.569 24.5172L85.6397 24.5179L85.639 32.4467L93.569 32.4465V24.5172Z" fill="#FFAD39"/>
<path d="M109.428 24.5171L101.499 24.5172V32.4465L109.428 32.4466V24.5171Z" fill="#FFAD39"/>
<path d="M117.357 16.5883H109.428V24.5171L117.358 24.518L117.357 16.5883Z" fill="#FFAD39"/>
<path d="M125.287 24.517L117.358 24.518L117.358 32.4469H125.287L125.287 24.517Z" fill="#FFAD39"/>
<path d="M133.216 32.4467L125.287 32.4469L125.287 40.3762H133.216V32.4467Z" fill="#FFAD39"/>
<path d="M93.569 40.376L85.639 40.3761L85.6396 48.3056H93.5691L93.569 40.376Z" fill="#FFAD39"/>
<path d="M149.075 32.4465H141.146V40.376H149.075V32.4465Z" fill="#FFAD39"/>
<path d="M149.075 16.5875H141.146V24.517H149.075V16.5875Z" fill="#FFAD39"/>
<path d="M157.005 8.65877H149.075L149.075 16.5875L157.005 16.5883V8.65877Z" fill="#FFAD39"/>
<path d="M164.935 0.728668H157.005L157.005 8.65877L164.935 8.65815V0.728668Z" fill="#FFAD39"/>
<path d="M172.864 8.65895L164.935 8.65815L164.935 16.5884H172.864V8.65895Z" fill="#FFAD39"/>
<path d="M180.794 16.5877L172.864 16.5884L172.864 24.5171H180.794V16.5877Z" fill="#FFAD39"/>
<path d="M141.146 24.517L133.216 24.517V32.4467L141.146 32.4465V24.517Z" fill="#FFAD39"/>
<path d="M157.005 24.5171L149.075 24.517V32.4465L157.005 32.4466V24.5171Z" fill="#FFAD39"/>
<path d="M164.935 16.5884L157.005 16.5883L157.005 24.5171L164.934 24.5177L164.935 16.5884Z" fill="#FFAD39"/>
<path d="M172.864 24.5171L164.934 24.5177L164.935 32.4469H172.864L172.864 24.5171Z" fill="#FFAD39"/>
<path d="M180.794 32.4461L172.864 32.4469L172.864 40.3756H180.794V32.4461Z" fill="#FFAD39"/>
<path d="M141.146 40.376L133.216 40.3762L133.216 48.3055H141.146L141.146 40.376Z" fill="#FFAD39"/>
<path d="M196.652 32.4465H188.723V40.376H196.652V32.4465Z" fill="#FFAD39"/>
<path d="M196.653 16.5879H188.724V24.5173H196.653V16.5879Z" fill="#FFAD39"/>
<path d="M204.582 8.65879H196.652L196.653 16.5879L204.582 16.5883V8.65879Z" fill="#FFAD39"/>
<path d="M212.512 0.729036H204.582L204.582 8.65879L212.512 8.65852V0.729036Z" fill="#FFAD39"/>
<path d="M220.441 8.65879L212.512 8.65852L212.511 16.5883H220.441V8.65879Z" fill="#FFAD39"/>
<path d="M228.371 16.588L220.441 16.5883L220.441 24.5175H228.371V16.588Z" fill="#FFAD39"/>
<path d="M188.724 24.5173L180.794 24.5171V32.4461L188.723 32.4465L188.724 24.5173Z" fill="#FFAD39"/>
<path d="M204.582 24.5171L196.653 24.5173L196.652 32.4465L204.582 32.4466V24.5171Z" fill="#FFAD39"/>
<path d="M212.511 16.5883H204.582V24.5171L212.512 24.518L212.511 16.5883Z" fill="#FFAD39"/>
<path d="M220.441 24.5175L212.512 24.518L212.512 32.4469H220.441L220.441 24.5175Z" fill="#FFAD39"/>
<path d="M228.371 32.447L220.441 32.4469L220.441 40.3765H228.371V32.447Z" fill="#FFAD39"/>
<path d="M188.723 40.376L180.794 40.3756L180.794 48.3056H188.723L188.723 40.376Z" fill="#FFAD39"/>
<path d="M244.231 32.446H236.301V40.3755H244.231V32.446Z" fill="#FFAD39"/>
<path d="M244.23 16.5875H236.3V24.517H244.23V16.5875Z" fill="#FFAD39"/>
<path d="M252.159 8.65775H244.23L244.23 16.5875L252.159 16.5872V8.65775Z" fill="#FFAD39"/>
<path d="M260.089 0.728516H252.16L252.159 8.65775L260.089 8.658V0.728516Z" fill="#FFAD39"/>
<path d="M268.019 8.6581L260.089 8.658L260.089 16.5876H268.019V8.6581Z" fill="#FFAD39"/>
<path d="M275.948 16.5877L268.019 16.5876L268.019 24.5172H275.948V16.5877Z" fill="#FFAD39"/>
<path d="M236.3 24.517L228.371 24.5175V32.447L236.301 32.446L236.3 24.517Z" fill="#FFAD39"/>
<path d="M252.159 24.5162L244.23 24.517L244.231 32.446L252.159 32.4457V24.5162Z" fill="#FFAD39"/>
<path d="M260.089 16.5876L252.159 16.5872L252.16 24.5173H260.089L260.089 16.5876Z" fill="#FFAD39"/>
<path d="M268.019 24.5172L260.089 24.5173L260.089 32.4466H268.018L268.019 24.5172Z" fill="#FFAD39"/>
<path d="M275.948 32.4461L268.018 32.4466L268.019 40.3756H275.948V32.4461Z" fill="#FFAD39"/>
<path d="M236.301 40.3755L228.371 40.3765L228.371 48.3056H236.3L236.301 40.3755Z" fill="#FFAD39"/>
<path d="M291.807 32.4465H283.877V40.376H291.807V32.4465Z" fill="#FFAD39"/>
<path d="M291.807 16.5875H283.877V24.517H291.807V16.5875Z" fill="#FFAD39"/>
<path d="M299.736 8.65865H291.807L291.807 16.5875L299.736 16.5881V8.65865Z" fill="#FFAD39"/>
<path d="M307.666 0.728718H299.737L299.736 8.65865L307.666 8.6582V0.728718Z" fill="#FFAD39"/>
<path d="M315.595 8.65865L307.666 8.6582L307.665 16.5881H315.595V8.65865Z" fill="#FFAD39"/>
<path d="M323.525 16.5884L315.595 16.5881L315.595 24.5179H323.525V16.5884Z" fill="#FFAD39"/>
<path d="M283.877 24.517L275.948 24.5172V32.4461L283.877 32.4465V24.517Z" fill="#FFAD39"/>
<path d="M299.736 24.5176L291.807 24.517V32.4465L299.736 32.4471V24.5176Z" fill="#FFAD39"/>
<path d="M307.665 16.5881H299.736V24.5176L307.665 24.5179L307.665 16.5881Z" fill="#FFAD39"/>
<path d="M315.595 24.5179H307.665L307.665 32.4466H315.595L315.595 24.5179Z" fill="#FFAD39"/>
<path d="M323.525 32.4469L315.595 32.4466L315.595 40.3764H323.525V32.4469Z" fill="#FFAD39"/>
<path d="M283.877 40.376L275.948 40.3756L275.948 48.3056H283.877L283.877 40.376Z" fill="#FFAD39"/>
<path d="M339.384 32.4465H331.455V40.376H339.384V32.4465Z" fill="#FFAD39"/>
<path d="M339.385 16.5879H331.455V24.5173H339.385V16.5879Z" fill="#FFAD39"/>
<path d="M347.314 8.65879H339.384L339.385 16.5879L347.314 16.5883V8.65879Z" fill="#FFAD39"/>
<path d="M355.244 0.728863H347.314L347.314 8.65879L355.244 8.65835V0.728863Z" fill="#FFAD39"/>
<path d="M363.172 8.65879L355.244 8.65835L355.243 16.5883H363.172V8.65879Z" fill="#FFAD39"/>
<path d="M371.102 16.5877L363.172 16.5883L363.173 24.5172H371.102V16.5877Z" fill="#FFAD39"/>
<path d="M331.455 24.5173L323.525 24.5179V32.4469L331.455 32.4465L331.455 24.5173Z" fill="#FFAD39"/>
<path d="M347.314 24.5171L339.385 24.5173L339.384 32.4465L347.314 32.4466V24.5171Z" fill="#FFAD39"/>
<path d="M355.243 16.5883H347.314V24.5171L355.243 24.5179L355.243 16.5883Z" fill="#FFAD39"/>
<path d="M363.173 24.5172L355.243 24.5179L355.244 32.4469H363.173L363.173 24.5172Z" fill="#FFAD39"/>
<path d="M371.102 32.4467L363.173 32.4469L363.172 40.3762H371.102V32.4467Z" fill="#FFAD39"/>
<path d="M331.455 40.376L323.525 40.3764L323.525 48.3056H331.455L331.455 40.376Z" fill="#FFAD39"/>
<path d="M386.961 32.4463H379.032V40.3758H386.961V32.4463Z" fill="#FFAD39"/>
<path d="M386.961 16.5875H379.032V24.517H386.961V16.5875Z" fill="#FFAD39"/>
<path d="M394.891 8.65879H386.961L386.961 16.5875L394.891 16.5883V8.65879Z" fill="#FFAD39"/>
<path d="M402.821 0.728867H394.891L394.891 8.65879L402.821 8.65835V0.728867Z" fill="#FFAD39"/>
<path d="M410.75 8.65879L402.821 8.65835L402.82 16.5883H410.75V8.65879Z" fill="#FFAD39"/>
<path d="M418.68 16.5877L410.75 16.5883L410.75 24.5172H418.68V16.5877Z" fill="#FFAD39"/>
<path d="M379.032 24.517L371.102 24.5172L371.102 32.4467L379.032 32.4463V24.517Z" fill="#FFAD39"/>
<path d="M394.891 24.5171L386.961 24.517V32.4463L394.891 32.4466V24.5171Z" fill="#FFAD39"/>
<path d="M402.82 16.5883H394.891V24.5171L402.82 24.5179L402.82 16.5883Z" fill="#FFAD39"/>
<path d="M410.75 24.5172L402.82 24.5179L402.821 32.4469H410.75L410.75 24.5172Z" fill="#FFAD39"/>
<path d="M418.679 32.4467L410.75 32.4469L410.75 40.3762H418.679V32.4467Z" fill="#FFAD39"/>
<path d="M379.032 40.3758L371.102 40.3762L371.102 48.3056H379.032L379.032 40.3758Z" fill="#FFAD39"/>
<path d="M434.539 32.4465H426.609V40.376H434.539V32.4465Z" fill="#FFAD39"/>
<path d="M434.539 16.5879H426.61V24.5173H434.539V16.5879Z" fill="#FFAD39"/>
<path d="M442.468 8.65879H434.538L434.539 16.5879L442.468 16.5883V8.65879Z" fill="#FFAD39"/>
<path d="M450.398 0.728863H442.469L442.468 8.65879L450.398 8.65835V0.728863Z" fill="#FFAD39"/>
<path d="M458.327 8.65879L450.398 8.65835L450.397 16.5883H458.327V8.65879Z" fill="#FFAD39"/>
<path d="M466.257 16.5877L458.327 16.5883L458.327 24.5172H466.257V16.5877Z" fill="#FFAD39"/>
<path d="M426.61 24.5173L418.68 24.5172L418.679 32.4467L426.609 32.4465L426.61 24.5173Z" fill="#FFAD39"/>
<path d="M442.468 24.5171L434.539 24.5173L434.539 32.4465L442.468 32.4466V24.5171Z" fill="#FFAD39"/>
<path d="M450.397 16.5883H442.468V24.5171L450.397 24.5179L450.397 16.5883Z" fill="#FFAD39"/>
<path d="M458.327 24.5172L450.397 24.5179L450.398 32.4469H458.327L458.327 24.5172Z" fill="#FFAD39"/>
<path d="M466.257 32.4468L458.327 32.4469L458.327 40.3763H466.257V32.4468Z" fill="#FFAD39"/>
<path d="M426.609 40.376L418.679 40.3762L418.68 48.3056H426.609L426.609 40.376Z" fill="#FFAD39"/>
<path d="M482.116 32.4463H474.186V40.3758H482.116V32.4463Z" fill="#FFAD39"/>
<path d="M482.116 16.5875H474.186V24.517H482.116V16.5875Z" fill="#FFAD39"/>
<path d="M490.045 8.65879H482.116L482.116 16.5875L490.045 16.5883V8.65879Z" fill="#FFAD39"/>
<path d="M497.975 0.728867H490.046L490.045 8.65879L497.975 8.65835V0.728867Z" fill="#FFAD39"/>
<path d="M505.904 8.65879L497.975 8.65835L497.974 16.5883H505.904V8.65879Z" fill="#FFAD39"/>
<path d="M513.834 16.5877L505.904 16.5883L505.905 24.5172H513.834V16.5877Z" fill="#FFAD39"/>
<path d="M474.186 24.517L466.257 24.5172V32.4468L474.186 32.4463V24.517Z" fill="#FFAD39"/>
<path d="M490.045 24.5171L482.116 24.517V32.4463L490.045 32.4466V24.5171Z" fill="#FFAD39"/>
<path d="M497.974 16.5883H490.045V24.5171L497.975 24.5179L497.974 16.5883Z" fill="#FFAD39"/>
<path d="M505.905 24.5172L497.975 24.5179L497.975 32.4469H505.905L505.905 24.5172Z" fill="#FFAD39"/>
<path d="M513.833 32.4467L505.905 32.4469L505.904 40.3762H513.833V32.4467Z" fill="#FFAD39"/>
<path d="M474.186 40.3758L466.257 40.3763V48.3056H474.186L474.186 40.3758Z" fill="#FFAD39"/>
<path d="M529.693 32.4465H521.764V40.376H529.693V32.4465Z" fill="#FFAD39"/>
<path d="M529.694 16.5879H521.764V24.5173H529.694V16.5879Z" fill="#FFAD39"/>
<path d="M537.622 8.65879H529.693L529.694 16.5879L537.622 16.5883V8.65879Z" fill="#FFAD39"/>
<path d="M545.552 0.728867H537.623L537.622 8.65879L545.552 8.65835V0.728867Z" fill="#FFAD39"/>
<path d="M553.481 8.65879L545.552 8.65835L545.552 16.5883H553.481V8.65879Z" fill="#FFAD39"/>
<path d="M561.411 16.5877L553.481 16.5883L553.482 24.5172H561.411V16.5877Z" fill="#FFAD39"/>
<path d="M521.764 24.5173L513.834 24.5172L513.833 32.4467L521.764 32.4465L521.764 24.5173Z" fill="#FFAD39"/>
<path d="M537.622 24.5171L529.694 24.5173L529.693 32.4465L537.622 32.4466V24.5171Z" fill="#FFAD39"/>
<path d="M545.552 16.5883H537.622V24.5171L545.552 24.5179L545.552 16.5883Z" fill="#FFAD39"/>
<path d="M553.482 24.5172L545.552 24.5179L545.552 32.4469H553.482L553.482 24.5172Z" fill="#FFAD39"/>
<path d="M561.411 32.4468L553.482 32.4469L553.482 40.3763H561.411V32.4468Z" fill="#FFAD39"/>
<path d="M521.764 40.376L513.833 40.3762L513.834 48.3056H521.764L521.764 40.376Z" fill="#FFAD39"/>
<path d="M577.27 32.4458H569.341V40.3753H577.27V32.4458Z" fill="#FFAD39"/>
<path d="M577.271 16.5868H569.341V24.5163H577.271V16.5868Z" fill="#FFAD39"/>
<path d="M585.199 8.65757H577.269V16.5871H585.199V8.65757Z" fill="#FFAD39"/>
<path d="M593.129 0.728689H585.199L585.199 8.65757L593.129 8.65817V0.728689Z" fill="#FFAD39"/>
<path d="M601.058 8.6581L593.129 8.65817L593.129 16.5876H601.058V8.6581Z" fill="#FFAD39"/>
<path d="M608.988 16.5868L601.058 16.5876L601.059 24.5163H608.988V16.5868Z" fill="#FFAD39"/>
<path d="M569.341 24.5163L561.411 24.5172V32.4468L569.341 32.4458L569.341 24.5163Z" fill="#FFAD39"/>
<path d="M585.2 24.516L577.271 24.5163L577.27 32.4458L585.2 32.4455V24.516Z" fill="#FFAD39"/>
<path d="M593.129 16.5876L585.199 16.5871L585.2 24.516L593.129 24.5172L593.129 16.5876Z" fill="#FFAD39"/>
<path d="M601.059 24.5163L593.129 24.5172L593.13 32.4457H601.059L601.059 24.5163Z" fill="#FFAD39"/>
<path d="M608.988 32.446L601.059 32.4457L601.059 40.3755H608.988V32.446Z" fill="#FFAD39"/>
<path d="M569.341 40.3753L561.411 40.3763L561.411 48.3056H569.341L569.341 40.3753Z" fill="#FFAD39"/>
<path d="M624.848 32.4463H616.918V40.3758H624.848V32.4463Z" fill="#FFAD39"/>
<path d="M624.848 16.5875H616.918V24.517H624.848V16.5875Z" fill="#FFAD39"/>
<path d="M632.776 8.65845H624.847L624.848 16.5875L632.776 16.5879V8.65845Z" fill="#FFAD39"/>
<path d="M640.707 0.728689H632.778V8.65817H640.707V0.728689Z" fill="#FFAD39"/>
<path d="M648.636 8.65862L640.707 8.65817L640.706 16.5881H648.636V8.65862Z" fill="#FFAD39"/>
<path d="M656.566 16.5884L648.636 16.5881L648.637 24.5179H656.566V16.5884Z" fill="#FFAD39"/>
<path d="M616.918 24.517L608.988 24.5163V32.446L616.918 32.4463V24.517Z" fill="#FFAD39"/>
<path d="M632.776 24.5174L624.848 24.517V32.4463L632.776 32.4469V24.5174Z" fill="#FFAD39"/>
<path d="M640.706 16.5881L632.776 16.5879V24.5174L640.706 24.5179L640.706 16.5881Z" fill="#FFAD39"/>
<path d="M648.637 24.5179H640.706L640.706 32.4466H648.636L648.637 24.5179Z" fill="#FFAD39"/>
<path d="M656.566 32.4468L648.636 32.4466L648.637 40.3763H656.566V32.4468Z" fill="#FFAD39"/>
<path d="M616.918 40.3758L608.988 40.3755L608.989 48.3056H616.918L616.918 40.3758Z" fill="#FFAD39"/>
<path d="M672.425 32.4465H664.496V40.376H672.425V32.4465Z" fill="#FFAD39"/>
<path d="M672.426 16.5879H664.496V24.5174H672.426V16.5879Z" fill="#FFAD39"/>
<path d="M680.354 8.65882H672.425L672.426 16.5879L680.354 16.5883V8.65882Z" fill="#FFAD39"/>
<path d="M688.285 0.728892H680.355L680.354 8.65882L688.285 8.65838V0.728892Z" fill="#FFAD39"/>
<path d="M696.213 8.65882L688.285 8.65838L688.284 16.5883H696.213V8.65882Z" fill="#FFAD39"/>
<path d="M704.143 16.5879L696.213 16.5883L696.214 24.5174H704.143V16.5879Z" fill="#FFAD39"/>
<path d="M664.496 24.5174L656.566 24.5179V32.4468L664.496 32.4465L664.496 24.5174Z" fill="#FFAD39"/>
<path d="M680.354 24.5171L672.426 24.5174L672.425 32.4465L680.354 32.4466V24.5171Z" fill="#FFAD39"/>
<path d="M688.284 16.5883H680.354V24.5171L688.285 24.5181L688.284 16.5883Z" fill="#FFAD39"/>
<path d="M696.214 24.5174L688.285 24.5181L688.284 32.4468H696.214L696.214 24.5174Z" fill="#FFAD39"/>
<path d="M704.143 32.4467L696.214 32.4468L696.213 40.3762H704.143V32.4467Z" fill="#FFAD39"/>
<path d="M664.496 40.376L656.566 40.3763L656.566 48.3056H664.496L664.496 40.376Z" fill="#FFAD39"/>
<path d="M720.002 32.4472H712.073V40.3767H720.002V32.4472Z" fill="#FFAD39"/>
<path d="M720.002 16.5884H712.073V24.5179H720.002V16.5884Z" fill="#FFAD39"/>
<path d="M727.931 8.65897H720.002L720.002 16.5884L727.931 16.5885V8.65897Z" fill="#FFAD39"/>
<path d="M735.862 0.729041H727.932L727.931 8.65897L735.862 8.65853V0.729041Z" fill="#FFAD39"/>
<path d="M743.79 8.65967H735.861V16.5892H743.79V8.65967Z" fill="#FFAD39"/>
<path d="M751.72 16.5884L743.79 16.5892L743.79 24.5179H751.72V16.5884Z" fill="#FFAD39"/>
<path d="M712.073 24.5179L704.143 24.5174L704.143 32.4467L712.073 32.4472V24.5179Z" fill="#FFAD39"/>
<path d="M727.931 24.518L720.002 24.5179V32.4472L727.931 32.4474V24.518Z" fill="#FFAD39"/>
<path d="M735.861 16.5892L727.931 16.5885V24.518L735.861 24.5186L735.861 16.5892Z" fill="#FFAD39"/>
<path d="M743.79 24.5179L735.861 24.5186L735.861 32.4478H743.791L743.79 24.5179Z" fill="#FFAD39"/>
<path d="M751.72 32.4475L743.791 32.4478L743.79 40.377H751.72V32.4475Z" fill="#FFAD39"/>
<path d="M712.073 40.3767L704.143 40.3762L704.143 48.3056H712.073L712.073 40.3767Z" fill="#FFAD39"/>
<path d="M767.579 32.4465H759.649V40.376H767.579V32.4465Z" fill="#FFAD39"/>
<path d="M767.579 16.5875H759.649V24.517H767.579V16.5875Z" fill="#FFAD39"/>
<path d="M775.508 8.65862H767.579L767.579 16.5875L775.508 16.5881V8.65862Z" fill="#FFAD39"/>
<path d="M783.438 0.728689H775.509L775.508 8.65862L783.438 8.65817V0.728689Z" fill="#FFAD39"/>
<path d="M791.367 8.65792L783.438 8.65817L783.437 16.5874H791.367V8.65792Z" fill="#FFAD39"/>
<path d="M799.297 16.5879L791.367 16.5874L791.368 24.5173H799.297V16.5879Z" fill="#FFAD39"/>
<path d="M759.649 24.517L751.72 24.5179V32.4475L759.649 32.4465V24.517Z" fill="#FFAD39"/>
<path d="M775.508 24.5169L767.579 24.517V32.4465L775.508 32.4464V24.5169Z" fill="#FFAD39"/>
<path d="M783.437 16.5874L775.508 16.5881V24.5169L783.438 24.5172L783.437 16.5874Z" fill="#FFAD39"/>
<path d="M791.368 24.5173L783.438 24.5172L783.437 32.4466H791.367L791.368 24.5173Z" fill="#FFAD39"/>
<path d="M799.297 32.4468L791.367 32.4466L791.368 40.3763H799.297V32.4468Z" fill="#FFAD39"/>
<path d="M759.649 40.376L751.72 40.377L751.72 48.3056H759.649L759.649 40.376Z" fill="#FFAD39"/>
<path d="M815.157 32.446H807.227V40.3755H815.157V32.446Z" fill="#FFAD39"/>
<path d="M815.156 16.5875H807.226V24.517H815.156V16.5875Z" fill="#FFAD39"/>
<path d="M823.085 8.65775H815.156V16.5875L823.085 16.5872V8.65775Z" fill="#FFAD39"/>
<path d="M831.015 0.728516H823.085V8.65775L831.015 8.658V0.728516Z" fill="#FFAD39"/>
<path d="M838.946 8.65827H831.016V16.5878H838.946V8.65827Z" fill="#FFAD39"/>
<path d="M846.874 16.5877H838.944V24.5172H846.874V16.5877Z" fill="#FFAD39"/>
<path d="M807.226 24.517L799.297 24.5173V32.4468L807.227 32.446L807.226 24.517Z" fill="#FFAD39"/>
<path d="M823.085 24.5162L815.156 24.517L815.157 32.446L823.085 32.4457V24.5162Z" fill="#FFAD39"/>
<path d="M831.015 16.5877L823.085 16.5872V24.5162L831.015 24.5172V16.5877Z" fill="#FFAD39"/>
<path d="M838.944 24.5172H831.015L831.015 32.4464H838.944L838.944 24.5172Z" fill="#FFAD39"/>
<path d="M846.875 32.4461H838.946V40.3756H846.875V32.4461Z" fill="#FFAD39"/>
<path d="M807.227 40.3755L799.297 40.3763V48.3056H807.227L807.227 40.3755Z" fill="#FFAD39"/>
<path d="M862.734 32.4463H854.804V40.3758H862.734V32.4463Z" fill="#FFAD39"/>
<path d="M862.734 16.5875H854.804V24.517H862.734V16.5875Z" fill="#FFAD39"/>
<path d="M870.663 8.65845H862.734L862.734 16.5875L870.663 16.5879V8.65845Z" fill="#FFAD39"/>
<path d="M878.593 0.728689H870.663L870.663 8.65845L878.593 8.65817V0.728689Z" fill="#FFAD39"/>
<path d="M886.522 8.65792L878.593 8.65817V16.5874H886.522V8.65792Z" fill="#FFAD39"/>
<path d="M894.452 16.5884L886.522 16.5874V24.5179H894.452V16.5884Z" fill="#FFAD39"/>
<path d="M854.804 24.517L846.875 24.5171V32.4461L854.804 32.4463V24.517Z" fill="#FFAD39"/>
<path d="M870.663 24.5167L862.734 24.517V32.4463L870.663 32.4462V24.5167Z" fill="#FFAD39"/>
<path d="M878.593 16.5874L870.663 16.5879V24.5167L878.593 24.5172V16.5874Z" fill="#FFAD39"/>
<path d="M886.522 24.5179L878.593 24.5172V32.4466H886.522V24.5179Z" fill="#FFAD39"/>
<path d="M894.452 32.4468L886.522 32.4466V40.3763H894.452V32.4468Z" fill="#FFAD39"/>
<path d="M854.804 40.3758L846.875 40.3756V48.3056H854.804V40.3758Z" fill="#FFAD39"/>
<path d="M910.31 32.4465H902.381V40.376H910.31V32.4465Z" fill="#FFAD39"/>
<path d="M910.31 16.5879H902.381V24.5173H910.31V16.5879Z" fill="#FFAD39"/>
<path d="M918.24 8.65879H910.31V16.5879L918.24 16.5883V8.65879Z" fill="#FFAD39"/>
<path d="M926.169 0.728867H918.24V8.65879L926.169 8.65835V0.728867Z" fill="#FFAD39"/>
<path d="M934.099 8.65879L926.169 8.65835L926.169 16.5883H934.099V8.65879Z" fill="#FFAD39"/>
<path d="M942.028 16.5877L934.099 16.5883L934.098 24.5172H942.028V16.5877Z" fill="#FFAD39"/>
<path d="M902.381 24.5173L894.452 24.5179V32.4468L902.381 32.4465V24.5173Z" fill="#FFAD39"/>
<path d="M918.24 24.5171L910.31 24.5173V32.4465L918.24 32.4466V24.5171Z" fill="#FFAD39"/>
<path d="M926.169 16.5883H918.24V24.5171L926.169 24.5179L926.169 16.5883Z" fill="#FFAD39"/>
<path d="M934.098 24.5172L926.169 24.5179L926.169 32.4469H934.099L934.098 24.5172Z" fill="#FFAD39"/>
<path d="M942.028 32.4467L934.099 32.4469L934.098 40.3762H942.028V32.4467Z" fill="#FFAD39"/>
<path d="M902.381 40.376L894.452 40.3763L894.451 48.3056H902.381L902.381 40.376Z" fill="#FFAD39"/>
<path d="M957.887 32.447H949.957V40.3765H957.887V32.447Z" fill="#FFAD39"/>
<path d="M957.887 16.5882H949.957V24.5177H957.887V16.5882Z" fill="#FFAD39"/>
<path d="M965.816 8.65879H957.887V16.5882L965.816 16.5883V8.65879Z" fill="#FFAD39"/>
<path d="M973.747 0.728863H965.818V8.65835H973.747V0.728863Z" fill="#FFAD39"/>
<path d="M981.675 8.65949H973.745V16.589H981.675V8.65949Z" fill="#FFAD39"/>
<path d="M989.604 16.5884L981.675 16.589L981.675 24.5179H989.604V16.5884Z" fill="#FFAD39"/>
<path d="M949.957 24.5177L942.028 24.5172V32.4467L949.957 32.447V24.5177Z" fill="#FFAD39"/>
<path d="M965.816 24.5178L957.887 24.5177V32.447L965.816 32.4473V24.5178Z" fill="#FFAD39"/>
<path d="M973.745 16.589L965.816 16.5883V24.5178L973.746 24.5186L973.745 16.589Z" fill="#FFAD39"/>
<path d="M981.675 24.5179L973.746 24.5186L973.745 32.4476H981.675L981.675 24.5179Z" fill="#FFAD39"/>
<path d="M989.604 32.4474L981.675 32.4476L981.675 40.3769H989.604V32.4474Z" fill="#FFAD39"/>
<path d="M949.957 40.3765L942.028 40.3762V48.3056H949.957L949.957 40.3765Z" fill="#FFAD39"/>
<path d="M1005.46 32.4465H997.534V40.376H1005.46V32.4465Z" fill="#FFAD39"/>
<path d="M1005.46 16.5879H997.534V24.5173H1005.46V16.5879Z" fill="#FFAD39"/>
<path d="M1013.39 8.65879H1005.46L1005.46 16.5879L1013.39 16.5883V8.65879Z" fill="#FFAD39"/>
<path d="M1021.32 0.728863H1013.39L1013.39 8.65879L1021.32 8.65835V0.728863Z" fill="#FFAD39"/>
<path d="M1029.25 8.65879L1021.32 8.65835V16.5883H1029.25V8.65879Z" fill="#FFAD39"/>
<path d="M1037.18 16.5877L1029.25 16.5883V24.5172H1037.18V16.5877Z" fill="#FFAD39"/>
<path d="M997.534 24.5173L989.604 24.5179V32.4474L997.534 32.4465V24.5173Z" fill="#FFAD39"/>
<path d="M1013.39 24.5171L1005.46 24.5173V32.4465L1013.39 32.4466V24.5171Z" fill="#FFAD39"/>
<path d="M1021.32 16.5883H1013.39V24.5171L1021.32 24.5179V16.5883Z" fill="#FFAD39"/>
<path d="M1029.25 24.5172L1021.32 24.5179V32.4469H1029.25V24.5172Z" fill="#FFAD39"/>
<path d="M1037.18 32.4467L1029.25 32.4469V40.3762H1037.18V32.4467Z" fill="#FFAD39"/>
<path d="M997.534 40.376L989.604 40.3769V48.3056H997.534L997.534 40.376Z" fill="#FFAD39"/>
<path d="M1053.04 32.4463H1045.11V40.3758H1053.04V32.4463Z" fill="#FFAD39"/>
<path d="M1053.04 16.5875H1045.11V24.517H1053.04V16.5875Z" fill="#FFAD39"/>
<path d="M1060.97 8.65879H1053.04L1053.04 16.5875L1060.97 16.5883V8.65879Z" fill="#FFAD39"/>
<path d="M1068.9 0.728863H1060.97L1060.97 8.65879L1068.9 8.65835V0.728863Z" fill="#FFAD39"/>
<path d="M1076.83 8.65827L1068.9 8.65835V16.5878H1076.83V8.65827Z" fill="#FFAD39"/>
<path d="M1084.76 16.5877L1076.83 16.5878V24.5172H1084.76V16.5877Z" fill="#FFAD39"/>
<path d="M1045.11 24.517L1037.18 24.5172V32.4467L1045.11 32.4463V24.517Z" fill="#FFAD39"/>
<path d="M1060.97 24.5171L1053.04 24.517V32.4463L1060.97 32.4466V24.5171Z" fill="#FFAD39"/>
<path d="M1068.9 16.5878L1060.97 16.5883V24.5171L1068.9 24.5172V16.5878Z" fill="#FFAD39"/>
<path d="M1076.83 24.5172H1068.9V32.4469H1076.83V24.5172Z" fill="#FFAD39"/>
<path d="M1084.76 32.4467L1076.83 32.4469V40.3762H1084.76V32.4467Z" fill="#FFAD39"/>
<path d="M1045.11 40.3758L1037.18 40.3762V48.3056H1045.11V40.3758Z" fill="#FFAD39"/>
<path d="M1100.62 32.4464H1092.69V40.3759H1100.62V32.4464Z" fill="#FFAD39"/>
<path d="M1100.62 16.5875H1092.69V24.5169H1100.62V16.5875Z" fill="#FFAD39"/>
<path d="M1108.55 8.65857H1100.62L1100.62 16.5875L1108.55 16.5881V8.65857Z" fill="#FFAD39"/>
<path d="M1116.48 0.728639H1108.55L1108.55 8.65857L1116.48 8.65812V0.728639Z" fill="#FFAD39"/>
<path d="M1124.4 8.65857L1116.48 8.65812V16.5881H1124.4V8.65857Z" fill="#FFAD39"/>
<path d="M1132.34 16.5878H1124.41V24.5173H1132.34V16.5878Z" fill="#FFAD39"/>
<path d="M1092.69 24.5169L1084.76 24.5172V32.4467L1092.69 32.4464V24.5169Z" fill="#FFAD39"/>
<path d="M1108.55 24.5169L1100.62 24.5169V32.4464L1108.55 32.4463V24.5169Z" fill="#FFAD39"/>
<path d="M1116.48 16.5881H1108.55V24.5169L1116.48 24.5178V16.5881Z" fill="#FFAD39"/>
<path d="M1124.4 24.517L1116.48 24.5178V32.4465H1124.4V24.517Z" fill="#FFAD39"/>
<path d="M1132.33 32.4468L1124.4 32.4465V40.3763H1132.33V32.4468Z" fill="#FFAD39"/>
<path d="M1092.69 40.3759L1084.76 40.3762L1084.76 48.3055H1092.69V40.3759Z" fill="#FFAD39"/>
<path d="M1148.19 32.4456H1140.27V40.3751H1148.19V32.4456Z" fill="#FFAD39"/>
<path d="M1148.19 16.5873H1140.27V24.5168H1148.19V16.5873Z" fill="#FFAD39"/>
<path d="M1156.12 8.65773H1148.19L1148.19 16.5873L1156.12 16.5872V8.65773Z" fill="#FFAD39"/>
<path d="M1164.05 0.728668H1156.12L1156.12 8.65773L1164.05 8.65815V0.728668Z" fill="#FFAD39"/>
<path d="M1171.98 8.65807H1164.05V16.5876H1171.98V8.65807Z" fill="#FFAD39"/>
<path d="M1179.91 16.5878L1171.98 16.5876V24.5173H1179.91V16.5878Z" fill="#FFAD39"/>
<path d="M1140.27 24.5168L1132.34 24.5173L1132.34 32.4464L1140.27 32.4456V24.5168Z" fill="#FFAD39"/>
<path d="M1156.13 24.5162H1148.2L1148.19 32.4456L1156.13 32.4457V24.5162Z" fill="#FFAD39"/>
<path d="M1164.05 16.5875L1156.12 16.5872L1156.12 24.517H1164.05V16.5875Z" fill="#FFAD39"/>
<path d="M1171.98 24.5171L1164.05 24.517V32.4466H1171.98V24.5171Z" fill="#FFAD39"/>
<path d="M1179.91 32.4456H1171.98V40.3751H1179.91V32.4456Z" fill="#FFAD39"/>
<path d="M1140.27 40.3751L1132.34 40.3759V48.3054H1140.27V40.3751Z" fill="#FFAD39"/>
<path d="M1195.77 32.4463H1187.84V40.3758H1195.77V32.4463Z" fill="#FFAD39"/>
<path d="M1195.77 16.5875H1187.84V24.5169H1195.77V16.5875Z" fill="#FFAD39"/>
<path d="M1203.7 8.6584H1195.77L1195.77 16.5875L1203.7 16.5879V8.6584Z" fill="#FFAD39"/>
<path d="M1211.63 0.728639H1203.7L1203.7 8.6584L1211.63 8.65812V0.728639Z" fill="#FFAD39"/>
<path d="M1219.56 8.65857L1211.63 8.65812V16.5881H1219.56V8.65857Z" fill="#FFAD39"/>
<path d="M1227.49 16.5883L1219.56 16.5881V24.5178H1227.49V16.5883Z" fill="#FFAD39"/>
<path d="M1187.84 24.5169L1179.91 24.5173V32.4456L1187.84 32.4463V24.5169Z" fill="#FFAD39"/>
<path d="M1203.7 24.5174L1195.77 24.5169V32.4463L1203.7 32.4469V24.5174Z" fill="#FFAD39"/>
<path d="M1211.63 16.5881L1203.7 16.5879V24.5174L1211.63 24.5178V16.5881Z" fill="#FFAD39"/>
<path d="M1219.56 24.5178H1211.63V32.4465H1219.56V24.5178Z" fill="#FFAD39"/>
<path d="M1227.49 32.4468L1219.56 32.4465V40.3763H1227.49V32.4468Z" fill="#FFAD39"/>
<path d="M1187.84 40.3758L1179.91 40.3751V48.3055H1187.84V40.3758Z" fill="#FFAD39"/>
<path d="M1243.35 32.4465H1235.42V40.376H1243.35V32.4465Z" fill="#FFAD39"/>
<path d="M1243.35 16.5875H1235.42V24.517H1243.35V16.5875Z" fill="#FFAD39"/>
<path d="M1251.28 8.65862H1243.35L1243.35 16.5875L1251.28 16.5881V8.65862Z" fill="#FFAD39"/>
<path d="M1259.21 0.728689H1251.28L1251.28 8.65862L1259.21 8.65817V0.728689Z" fill="#FFAD39"/>
<path d="M1267.14 8.65792L1259.21 8.65817V16.5874H1267.14V8.65792Z" fill="#FFAD39"/>
<path d="M1275.07 16.5875L1267.14 16.5874V24.517H1275.07V16.5875Z" fill="#FFAD39"/>
<path d="M1235.42 24.517L1227.49 24.5178V32.4468L1235.42 32.4465V24.517Z" fill="#FFAD39"/>
<path d="M1251.28 24.5169L1243.35 24.517V32.4465L1251.28 32.4464V24.5169Z" fill="#FFAD39"/>
<path d="M1259.21 16.5874L1251.28 16.5881V24.5169L1259.21 24.5172V16.5874Z" fill="#FFAD39"/>
<path d="M1267.14 24.517L1259.21 24.5172V32.4466H1267.14V24.517Z" fill="#FFAD39"/>
<path d="M1275.07 32.4467L1267.14 32.4466V40.3761H1275.07V32.4467Z" fill="#FFAD39"/>
<path d="M1235.42 40.376L1227.49 40.3763L1227.49 48.3056H1235.42V40.376Z" fill="#FFAD39"/>
<path d="M1290.93 32.4465H1283V40.376H1290.93V32.4465Z" fill="#FFAD39"/>
<path d="M1290.93 16.5877H1283V24.5172H1290.93V16.5877Z" fill="#FFAD39"/>
<path d="M1298.85 8.65879H1290.93L1290.93 16.5877L1298.85 16.5883V8.65879Z" fill="#FFAD39"/>
<path d="M1306.78 0.728867H1298.85L1298.85 8.65879L1306.78 8.65835V0.728867Z" fill="#FFAD39"/>
<path d="M1314.71 8.65879L1306.78 8.65835V16.5883H1314.71V8.65879Z" fill="#FFAD39"/>
<path d="M1322.64 16.5877L1314.71 16.5883V24.5172H1322.64V16.5877Z" fill="#FFAD39"/>
<path d="M1283 24.5172L1275.07 24.517V32.4467L1283 32.4465V24.5172Z" fill="#FFAD39"/>
<path d="M1298.85 24.5171L1290.93 24.5172V32.4465L1298.85 32.4466V24.5171Z" fill="#FFAD39"/>
<path d="M1306.78 16.5883H1298.85V24.5171L1306.78 24.5179V16.5883Z" fill="#FFAD39"/>
<path d="M1314.71 24.5172L1306.78 24.5179V32.4469H1314.71V24.5172Z" fill="#FFAD39"/>
<path d="M1322.64 32.4467L1314.71 32.4469V40.3762H1322.64V32.4467Z" fill="#FFAD39"/>
<path d="M1283 40.376L1275.07 40.3761L1275.07 48.3056H1283V40.376Z" fill="#FFAD39"/>
<path d="M1338.5 32.4465H1330.57V40.376H1338.5V32.4465Z" fill="#FFAD39"/>
<path d="M1338.5 16.5879H1330.57V24.5173H1338.5V16.5879Z" fill="#FFAD39"/>
<path d="M1346.43 8.65879H1338.5L1338.5 16.5879L1346.43 16.5883V8.65879Z" fill="#FFAD39"/>
<path d="M1354.36 0.728867H1346.43L1346.43 8.65879L1354.36 8.65835V0.728867Z" fill="#FFAD39"/>
<path d="M1362.29 8.65879L1354.36 8.65835V16.5883H1362.29V8.65879Z" fill="#FFAD39"/>
<path d="M1370.22 16.5877L1362.29 16.5883V24.5172H1370.22V16.5877Z" fill="#FFAD39"/>
<path d="M1330.57 24.5173L1322.64 24.5172V32.4467L1330.57 32.4465V24.5173Z" fill="#FFAD39"/>
<path d="M1346.43 24.5171L1338.5 24.5173V32.4465L1346.43 32.4466V24.5171Z" fill="#FFAD39"/>
<path d="M1354.36 16.5883H1346.43V24.5171L1354.36 24.5179V16.5883Z" fill="#FFAD39"/>
<path d="M1362.29 24.5172L1354.36 24.5179V32.4469H1362.29V24.5172Z" fill="#FFAD39"/>
<path d="M1370.22 32.4468L1362.29 32.4469V40.3763H1370.22V32.4468Z" fill="#FFAD39"/>
<path d="M1330.57 40.376L1322.64 40.3762V48.3056H1330.57V40.376Z" fill="#FFAD39"/>
<path d="M1386.08 32.4458H1378.15V40.3753H1386.08V32.4458Z" fill="#FFAD39"/>
<path d="M1386.08 16.5875H1378.15V24.517H1386.08V16.5875Z" fill="#FFAD39"/>
<path d="M1394.01 8.65775H1386.08L1386.08 16.5875L1394.01 16.5872V8.65775Z" fill="#FFAD39"/>
<path d="M1401.94 0.728689H1394.01L1394.01 8.65775L1401.94 8.65817V0.728689Z" fill="#FFAD39"/>
<path d="M1409.87 8.6581L1401.94 8.65817V16.5876H1409.87V8.6581Z" fill="#FFAD39"/>
<path d="M1417.8 16.5879H1409.87V24.5173H1417.8V16.5879Z" fill="#FFAD39"/>
<path d="M1378.15 24.517L1370.22 24.5172V32.4468L1378.15 32.4458V24.517Z" fill="#FFAD39"/>
<path d="M1394.01 24.516L1386.08 24.517V32.4458L1394.01 32.4455V24.516Z" fill="#FFAD39"/>
<path d="M1401.94 16.5876L1394.01 16.5872V24.516L1401.94 24.5172V16.5876Z" fill="#FFAD39"/>
<path d="M1409.87 24.5171L1401.94 24.5172V32.4466H1409.87V24.5171Z" fill="#FFAD39"/>
<path d="M1417.8 32.4456H1409.87V40.3751H1417.8V32.4456Z" fill="#FFAD39"/>
<path d="M1378.15 40.3753L1370.22 40.3763L1370.22 48.3056H1378.15V40.3753Z" fill="#FFAD39"/>
<path d="M1433.66 32.4463H1425.73V40.3758H1433.66V32.4463Z" fill="#FFAD39"/>
<path d="M1433.66 16.5875H1425.73V24.517H1433.66V16.5875Z" fill="#FFAD39"/>
<path d="M1441.59 8.65845H1433.66L1433.66 16.5875L1441.59 16.5879V8.65845Z" fill="#FFAD39"/>
<path d="M1425.73 24.517L1417.8 24.5173V32.4456L1425.73 32.4463V24.517Z" fill="#FFAD39"/>
<path d="M1441.59 24.5174L1433.66 24.517V32.4463L1441.59 32.4469V24.5174Z" fill="#FFAD39"/>
<path d="M1425.73 40.3758L1417.8 40.3751L1417.8 48.3056H1425.73V40.3758Z" fill="#FFAD39"/>
</svg>
